<svg xmlns="http://www.w3.org/2000/svg" version="1.1" xmlns:xlink="http://www.w3.org/1999/xlink" xmlns:svgjs="http://svgjs.com/svgjs" width="1440" height="560" preserveAspectRatio="none" viewBox="0 0 1440 560"><g mask="url(&quot;#SvgjsMask4116&quot;)" fill="none"><rect width="1440" height="560" x="0" y="0" fill="url(#SvgjsLinearGradient4117)"></rect><path d="M1136.27 467.18L1146.54 474.84 1141.32 486.53 1151.58 494.19 1146.36 505.89 1156.63 513.55 1151.41 525.24M1128.53 469.2L1138.79 476.86 1133.58 488.55 1143.84 496.21 1138.62 507.91 1148.88 515.56 1143.66 527.26M1120.79 471.22L1131.05 478.88 1125.83 490.57 1136.1 498.23 1130.88 509.92 1141.14 517.58 1135.92 529.28" stroke="#037b0b" stroke-width="1" stroke-dasharray="2, 2"></path><path d="M592.63 199.49 L510.39 111.14L617.9674350591237 88.85756494087636z" fill="#d3b714"></path><path d="M359.69 208.54a5.6 5.6 0 1 0-8.89-6.81 5.6 5.6 0 1 0 8.89 6.81zM346.99 198.81a5.6 5.6 0 1 0-8.89-6.81 5.6 5.6 0 1 0 8.89 6.81zM334.29 189.09a5.6 5.6 0 1 0-8.9-6.81 5.6 5.6 0 1 0 8.9 6.81zM321.58 179.36a5.6 5.6 0 1 0-8.89-6.81 5.6 5.6 0 1 0 8.89 6.81z" fill="rgba(87, 98, 213, 1)"></path><rect width="228" height="228" clip-path="url(&quot;#SvgjsClipPath4118&quot;)" x="595.85" y="383.49" fill="url(#SvgjsPattern4119)" transform="rotate(77.91, 709.85, 497.49)"></rect><rect width="318.24" height="318.24" clip-path="url(&quot;#SvgjsClipPath4120&quot;)" x="1017.06" y="-95.72" fill="url(#SvgjsPattern4121)" transform="rotate(148.96, 1176.18, 63.4)"></rect><path d="M808.66 267.87a5.6 5.6 0 1 0 11.13 1.25 5.6 5.6 0 1 0-11.13-1.25zM824.56 269.66a5.6 5.6 0 1 0 11.13 1.25 5.6 5.6 0 1 0-11.13-1.25zM840.46 271.44a5.6 5.6 0 1 0 11.13 1.26 5.6 5.6 0 1 0-11.13-1.26zM856.36 273.23a5.6 5.6 0 1 0 11.13 1.25 5.6 5.6 0 1 0-11.13-1.25zM775.07 280.2a5.6 5.6 0 1 0 11.13 1.25 5.6 5.6 0 1 0-11.13-1.25zM790.97 281.99a5.6 5.6 0 1 0 11.13 1.25 5.6 5.6 0 1 0-11.13-1.25zM806.87 283.77a5.6 5.6 0 1 0 11.13 1.25 5.6 5.6 0 1 0-11.13-1.25zM822.77 285.56a5.6 5.6 0 1 0 11.13 1.25 5.6 5.6 0 1 0-11.13-1.25zM741.48 292.53a5.6 5.6 0 1 0 11.13 1.25 5.6 5.6 0 1 0-11.13-1.25zM757.38 294.31a5.6 5.6 0 1 0 11.13 1.25 5.6 5.6 0 1 0-11.13-1.25zM773.28 296.1a5.6 5.6 0 1 0 11.13 1.25 5.6 5.6 0 1 0-11.13-1.25zM789.18 297.89a5.6 5.6 0 1 0 11.13 1.25 5.6 5.6 0 1 0-11.13-1.25z" stroke="#037b0b" stroke-width="2.29"></path><path d="M885.33 355.52L887.08 368.2 875.09 372.7 876.85 385.39 864.86 389.89 866.62 402.57 854.63 407.07" stroke="#e73635" stroke-width="1.53"></path><circle r="76.94315329642195" cx="1356.99" cy="131.04" stroke="#d3b714" stroke-width="2.25" stroke-dasharray="4, 4"></circle><rect width="297" height="297" clip-path="url(&quot;#SvgjsClipPath4122&quot;)" x="761.89" y="-130.43" fill="url(#SvgjsPattern4123)" transform="rotate(2.18, 910.39, 18.07)"></rect><path d="M-0.69 167.36a5.6 5.6 0 1 0 5.17 9.94 5.6 5.6 0 1 0-5.17-9.94zM6.69 181.56a5.6 5.6 0 1 0 5.17 9.94 5.6 5.6 0 1 0-5.17-9.94zM14.07 195.76a5.6 5.6 0 1 0 5.17 9.93 5.6 5.6 0 1 0-5.17-9.93zM21.45 209.95a5.6 5.6 0 1 0 5.17 9.94 5.6 5.6 0 1 0-5.17-9.94zM-29.64 146.35a5.6 5.6 0 1 0 5.16 9.94 5.6 5.6 0 1 0-5.16-9.94zM-22.26 160.55a5.6 5.6 0 1 0 5.16 9.93 5.6 5.6 0 1 0-5.16-9.93zM-14.88 174.74a5.6 5.6 0 1 0 5.16 9.94 5.6 5.6 0 1 0-5.16-9.94zM-7.5 188.94a5.6 5.6 0 1 0 5.16 9.94 5.6 5.6 0 1 0-5.16-9.94zM-58.6 125.34a5.6 5.6 0 1 0 5.16 9.94 5.6 5.6 0 1 0-5.16-9.94zM-51.22 139.54a5.6 5.6 0 1 0 5.17 9.93 5.6 5.6 0 1 0-5.17-9.93zM-43.84 153.73a5.6 5.6 0 1 0 5.17 9.94 5.6 5.6 0 1 0-5.17-9.94zM-36.46 167.93a5.6 5.6 0 1 0 5.17 9.94 5.6 5.6 0 1 0-5.17-9.94z" stroke="#e73635" stroke-width="1"></path><rect width="324" height="324" clip-path="url(&quot;#SvgjsClipPath4124&quot;)" x="180.96" y="96.47" fill="url(#SvgjsPattern4125)" transform="rotate(312.43, 342.96, 258.47)"></rect><path d="M555.09 259.43L545.77 268.21 535.16 261.04 525.83 269.82 515.22 262.64 505.9 271.42 495.29 264.25" stroke="#d3b714" stroke-width="1.56" stroke-dasharray="3, 2"></path></g><defs><mask id="SvgjsMask4116"><rect width="1440" height="560" fill="#ffffff"></rect></mask><linearGradient x1="15.28%" y1="-39.29%" x2="84.72%" y2="139.29%" gradientUnits="userSpaceOnUse" id="SvgjsLinearGradient4117"><stop stop-color="#0e2a47" offset="0"></stop><stop stop-color="rgba(0, 158, 127, 0.23)" offset="1"></stop></linearGradient><pattern x="0" y="0" width="6" height="6" patternUnits="userSpaceOnUse" id="SvgjsPattern4119"><path d="M0 6L3 0L6 6" stroke="#e73635" fill="none"></path></pattern><clipPath id="SvgjsClipPath4118"><circle r="57" cx="709.85" cy="497.49"></circle></clipPath><pattern x="0" y="0" width="318.24" height="8.84" patternUnits="userSpaceOnUse" id="SvgjsPattern4121"><rect width="318.24" height="4.42" x="0" y="0" fill="#d3b714"></rect><rect width="318.24" height="4.42" x="0" y="4.42" fill="rgba(0, 0, 0, 0)"></rect></pattern><clipPath id="SvgjsClipPath4120"><circle r="79.56" cx="1176.18" cy="63.4"></circle></clipPath><pattern x="0" y="0" width="13.5" height="13.5" patternUnits="userSpaceOnUse" id="SvgjsPattern4123"><path d="M6.75 1L6.75 12.5M1 6.75L12.5 6.75" stroke="#e73635" fill="none" stroke-width="1.3"></path></pattern><clipPath id="SvgjsClipPath4122"><circle r="74.25" cx="910.39" cy="18.07"></circle></clipPath><pattern x="0" y="0" width="6" height="6" patternUnits="userSpaceOnUse" id="SvgjsPattern4125"><path d="M3 1L3 5M1 3L5 3" stroke="rgba(87, 98, 213, 1)" fill="none" stroke-width="1"></path></pattern><clipPath id="SvgjsClipPath4124"><circle r="81" cx="342.96" cy="258.47"></circle></clipPath></defs></svg>